<svg width="24" height="24" viewBox="0 0 24 24" fill="none" xmlns="http://www.w3.org/2000/svg">
<path fill-rule="evenodd" clip-rule="evenodd" d="M2.25 5.25C2.25 4.42157 2.92157 3.75 3.75 3.75H20.25C21.0784 3.75 21.75 4.42157 21.75 5.25V18.75C21.75 19.5784 21.0784 20.25 20.25 20.25H3.75C2.92157 20.25 2.25 19.5784 2.25 18.75V5.25ZM20.25 5.25H3.75V18.75H20.25V5.25Z" fill="#757575"/>
<path fill-rule="evenodd" clip-rule="evenodd" d="M7.67067 10.1769C7.85416 10.1001 8.05109 10.0605 8.25 10.0605C8.44891 10.0605 8.64584 10.1001 8.82933 10.1769C9.01177 10.2533 9.17729 10.365 9.31637 10.5056L13.5 14.6893L13.504 14.6852L15.4337 12.7556C15.5728 12.615 15.7383 12.5033 15.9207 12.4269C16.1042 12.3501 16.3011 12.3105 16.5 12.3105C16.6989 12.3105 16.8958 12.3501 17.0793 12.4269C17.2617 12.5033 17.4272 12.615 17.5663 12.7556L21.5303 16.7196C21.8232 17.0125 21.8232 17.4874 21.5303 17.7802C21.2374 18.0731 20.7626 18.0731 20.4697 17.7802L16.5 13.8106L16.496 13.8146L14.5687 15.7418C14.568 15.7426 14.5672 15.7434 14.5664 15.7442C14.4273 15.8848 14.2618 15.9965 14.0793 16.0729C13.8958 16.1497 13.6989 16.1893 13.5 16.1893C13.3011 16.1893 13.1042 16.1497 12.9207 16.0729C12.7382 15.9965 12.5727 15.8848 12.4336 15.7442L8.24998 11.5606L8.24597 11.5646L3.53033 16.2802C3.23744 16.5731 2.76256 16.5731 2.46967 16.2802C2.17678 15.9874 2.17678 15.5125 2.46967 15.2196L7.18359 10.5057C7.32268 10.3651 7.48822 10.2533 7.67067 10.1769Z" fill="#757575"/>
<path d="M14.625 10.5C15.2463 10.5 15.75 9.99632 15.75 9.375C15.75 8.75368 15.2463 8.25 14.625 8.25C14.0037 8.25 13.5 8.75368 13.5 9.375C13.5 9.99632 14.0037 10.5 14.625 10.5Z" fill="#757575"/>
</svg>
