<svg width="24" height="24" viewBox="0 0 24 24" fill="none" xmlns="http://www.w3.org/2000/svg">
<path fill-rule="evenodd" clip-rule="evenodd" d="M4.125 13.5C4.125 13.0858 4.46079 12.75 4.875 12.75H10.5C10.9142 12.75 11.25 13.0858 11.25 13.5V19.125C11.25 19.5392 10.9142 19.875 10.5 19.875C10.0858 19.875 9.75 19.5392 9.75 19.125V14.25H4.875C4.46079 14.25 4.125 13.9142 4.125 13.5Z" fill="black"/>
<path fill-rule="evenodd" clip-rule="evenodd" d="M11.0303 12.9697C11.3232 13.2626 11.3232 13.7374 11.0303 14.0303L4.28033 20.7803C3.98744 21.0732 3.51256 21.0732 3.21967 20.7803C2.92678 20.4874 2.92678 20.0126 3.21967 19.7197L9.96967 12.9697C10.2626 12.6768 10.7374 12.6768 11.0303 12.9697Z" fill="black"/>
<path fill-rule="evenodd" clip-rule="evenodd" d="M5.68934 3.43934C5.97064 3.15804 6.35217 3 6.75 3H19.5C19.8978 3 20.2794 3.15804 20.5607 3.43934C20.842 3.72065 21 4.10218 21 4.5V17.25C21 17.6478 20.842 18.0294 20.5607 18.3107C20.2794 18.592 19.8978 18.75 19.5 18.75H15C14.5858 18.75 14.25 18.4142 14.25 18C14.25 17.5858 14.5858 17.25 15 17.25H19.5V4.5L6.75 4.5L6.75 9C6.75 9.41421 6.41421 9.75 6 9.75C5.58579 9.75 5.25 9.41421 5.25 9V4.5C5.25 4.10217 5.40804 3.72064 5.68934 3.43934Z" fill="black"/>
</svg>
