<svg width="16" height="16" viewBox="0 0 16 16" fill="none" xmlns="http://www.w3.org/2000/svg">
<path fill-rule="evenodd" clip-rule="evenodd" d="M2 2.5C2.27614 2.5 2.5 2.72386 2.5 3V12.5H14C14.2761 12.5 14.5 12.7239 14.5 13C14.5 13.2761 14.2761 13.5 14 13.5H2C1.72386 13.5 1.5 13.2761 1.5 13V3C1.5 2.72386 1.72386 2.5 2 2.5Z" fill="#109B60"/>
<path fill-rule="evenodd" clip-rule="evenodd" d="M14.3763 5.67075C14.5581 5.87857 14.5371 6.19445 14.3293 6.3763L10.3293 9.87629C10.1515 10.0319 9.88902 10.0418 9.70001 9.90001L6.02424 7.14318L2.32926 10.3763C2.12144 10.5581 1.80556 10.5371 1.62372 10.3293C1.44188 10.1214 1.46294 9.80556 1.67075 9.62372L5.67075 6.12372C5.84856 5.96814 6.111 5.95825 6.30001 6.10001L9.97577 8.85683L13.6708 5.62372C13.8786 5.44188 14.1945 5.46294 14.3763 5.67075Z" fill="#109B60"/>
</svg>
