<svg width="24" height="24" viewBox="0 0 24 24" fill="none" xmlns="http://www.w3.org/2000/svg">
<path fill-rule="evenodd" clip-rule="evenodd" d="M12.5058 3.78519C10.5024 3.65963 8.52202 4.26967 6.93649 5.50077C5.35096 6.73187 4.26932 8.49937 3.89462 10.4715C3.51992 12.4435 3.87793 14.4846 4.90145 16.2114C5.00626 16.3882 5.03389 16.6004 4.97789 16.7981L4.09949 19.9006L7.20194 19.0222L7.40626 19.7438L7.78867 19.0986C9.5155 20.1222 11.5565 20.4802 13.5286 20.1055C15.5007 19.7308 17.2682 18.6491 18.4993 17.0636C19.7304 15.4781 20.3404 13.4977 20.2149 11.4943C20.0893 9.49082 19.2368 7.6021 17.8174 6.18268C16.398 4.76326 14.5093 3.91074 12.5058 3.78519ZM7.3081 20.5511C9.28698 21.636 11.5849 22.0016 13.8086 21.5791C16.1397 21.1362 18.2289 19.8577 19.6841 17.9835C21.1393 16.1094 21.8604 13.7685 21.712 11.4004C21.5635 9.03232 20.5559 6.79981 18.8781 5.12202C17.2003 3.44423 14.9678 2.43654 12.5997 2.28813C10.2315 2.13972 7.89069 2.86079 6.01656 4.31599C4.14242 5.77118 2.86389 7.86041 2.42098 10.1915C1.99847 12.4152 2.36412 14.7131 3.44899 16.692L2.6541 19.4994C2.58006 19.755 2.57578 20.0258 2.64173 20.2836C2.708 20.5427 2.84274 20.7792 3.03183 20.9683C3.22091 21.1573 3.45739 21.2921 3.71645 21.3584C3.9743 21.4243 4.24508 21.42 4.50068 21.346L7.3081 20.5511Z" fill="#A2E6FA"/>
<path d="M12 13.125C12.6213 13.125 13.125 12.6213 13.125 12C13.125 11.3787 12.6213 10.875 12 10.875C11.3787 10.875 10.875 11.3787 10.875 12C10.875 12.6213 11.3787 13.125 12 13.125Z" fill="#A2E6FA"/>
<path d="M7.5 13.125C8.12132 13.125 8.625 12.6213 8.625 12C8.625 11.3787 8.12132 10.875 7.5 10.875C6.87868 10.875 6.375 11.3787 6.375 12C6.375 12.6213 6.87868 13.125 7.5 13.125Z" fill="#A2E6FA"/>
<path d="M16.5 13.125C17.1213 13.125 17.625 12.6213 17.625 12C17.625 11.3787 17.1213 10.875 16.5 10.875C15.8787 10.875 15.375 11.3787 15.375 12C15.375 12.6213 15.8787 13.125 16.5 13.125Z" fill="#A2E6FA"/>
</svg>
