<svg width="24" height="24" viewBox="0 0 24 24" fill="none" xmlns="http://www.w3.org/2000/svg">
<path fill-rule="evenodd" clip-rule="evenodd" d="M4.18934 2.68934C4.47064 2.40804 4.85217 2.25 5.25 2.25H14.25C14.4489 2.25 14.6397 2.32902 14.7803 2.46967L20.0303 7.71967C20.171 7.86032 20.25 8.05109 20.25 8.25V20.25C20.25 20.6478 20.092 21.0294 19.8107 21.3107C19.5294 21.592 19.1478 21.75 18.75 21.75H5.25C4.85218 21.75 4.47065 21.592 4.18934 21.3107C3.90804 21.0294 3.75 20.6478 3.75 20.25V3.75C3.75 3.35217 3.90804 2.97064 4.18934 2.68934ZM13.9393 3.75L5.25 3.75L5.25 20.25H18.75V8.56066L13.9393 3.75Z" fill="#0D3A5C"/>
<path fill-rule="evenodd" clip-rule="evenodd" d="M14.25 2.25C14.6642 2.25 15 2.58579 15 3V7.5H19.5C19.9142 7.5 20.25 7.83579 20.25 8.25C20.25 8.66421 19.9142 9 19.5 9H14.25C13.8358 9 13.5 8.66421 13.5 8.25V3C13.5 2.58579 13.8358 2.25 14.25 2.25Z" fill="#0D3A5C"/>
<path fill-rule="evenodd" clip-rule="evenodd" d="M8.25 12.75C8.25 12.3358 8.58579 12 9 12H15C15.4142 12 15.75 12.3358 15.75 12.75C15.75 13.1642 15.4142 13.5 15 13.5H9C8.58579 13.5 8.25 13.1642 8.25 12.75Z" fill="#0D3A5C"/>
<path fill-rule="evenodd" clip-rule="evenodd" d="M8.25 15.75C8.25 15.3358 8.58579 15 9 15H15C15.4142 15 15.75 15.3358 15.75 15.75C15.75 16.1642 15.4142 16.5 15 16.5H9C8.58579 16.5 8.25 16.1642 8.25 15.75Z" fill="#0D3A5C"/>
</svg>
