<svg width="15" height="15" viewBox="0 0 15 15" fill="none" xmlns="http://www.w3.org/2000/svg">
<path d="M9.58623 14.8412C9.42546 14.8412 9.27659 14.7519 9.19918 14.6148C9.12177 14.4778 9.12177 14.305 9.20514 14.168L9.83037 13.1255C9.95542 12.911 10.2293 12.8455 10.4437 12.9706C10.6581 13.0957 10.7236 13.3697 10.5985 13.5842L10.4378 13.8523C12.0812 13.465 13.3139 11.9876 13.3139 10.2242C13.3139 9.9799 13.5163 9.77734 13.7605 9.77734C14.0046 9.77734 14.2071 9.9799 14.2071 10.2242C14.2011 12.768 12.1289 14.8412 9.58623 14.8412Z" fill="#0D3A5C"/>
<path d="M0.653631 5.90564C0.40949 5.90564 0.207031 5.70309 0.207031 5.45883C0.207031 2.91499 2.27925 0.841797 4.8219 0.841797C4.98267 0.841797 5.13154 0.931162 5.20895 1.06818C5.28636 1.2052 5.28636 1.37797 5.20299 1.51499L4.57776 2.55755C4.45271 2.77202 4.17879 2.83756 3.96443 2.71245C3.75006 2.58734 3.68456 2.31332 3.8096 2.09885L3.97038 1.83076C2.32689 2.21799 1.09428 3.69542 1.09428 5.45883C1.10023 5.70309 0.897772 5.90564 0.653631 5.90564Z" fill="#0D3A5C"/>
<path d="M5.22121 13.9658C2.94653 13.9658 1.10059 12.1131 1.10059 9.84329C1.10059 7.5735 2.95249 5.7207 5.22121 5.7207C5.3284 5.7207 5.42367 5.72667 5.53086 5.73263C7.54949 5.88752 9.18107 7.51987 9.32993 9.52753C9.33589 9.65859 9.34184 9.74797 9.34184 9.84329C9.3478 12.1131 7.49589 13.9658 5.22121 13.9658ZM5.22121 6.6084C3.44077 6.6084 1.99379 8.05605 1.99379 9.83733C1.99379 11.6186 3.44077 13.0663 5.22121 13.0663C7.00166 13.0663 8.4546 11.6186 8.4546 9.83733C8.4546 9.75988 8.44864 9.68243 8.44269 9.60498C8.3236 8.00838 7.04334 6.73347 5.47131 6.61432C5.3939 6.61432 5.31053 6.6084 5.22121 6.6084Z" fill="#0D3A5C"/>
<path d="M9.18704 10.0049H8.89526C8.66302 10.0049 8.46652 9.82615 8.44866 9.5938C8.32956 8.01508 7.05526 6.74019 5.47728 6.62104C5.24505 6.60317 5.06641 6.40657 5.06641 6.17423V5.88232C5.06641 3.60657 6.91831 1.75977 9.19299 1.75977C11.4677 1.75977 13.3136 3.61253 13.3136 5.88232C13.3136 8.15211 11.4558 10.0049 9.18704 10.0049ZM5.95365 5.78105C7.63287 6.08488 8.97862 7.42529 9.28231 9.11125C11.0211 9.05763 12.4145 7.62785 12.4145 5.88232C12.4145 4.10104 10.9675 2.65338 9.18704 2.65338C7.43636 2.64743 6.00724 4.04147 5.95365 5.78105Z" fill="#0D3A5C"/>
</svg>
