<svg width="19" height="20" viewBox="0 0 19 20" fill="none" xmlns="http://www.w3.org/2000/svg">
<path fill-rule="evenodd" clip-rule="evenodd" d="M8.22471 1.15477C8.416 1.34644 8.48913 1.62635 8.41601 1.88709C8.03904 3.23141 8.02669 4.65184 8.38022 6.00251C8.73375 7.35319 9.44042 8.58542 10.4277 9.57266C11.4149 10.5599 12.6471 11.2666 13.9978 11.6201C15.3485 11.9736 17.1558 11.8772 18.5001 11.5002C19.1037 13.1841 17.7541 15.5209 16.5875 16.6707C15.4209 17.8205 13.9734 18.6446 12.3892 19.0609C10.805 19.4772 9.13942 19.4712 7.55829 19.0434C5.97716 18.6156 4.53569 17.7811 3.37747 16.6229C2.21924 15.4646 1.38469 14.0232 0.956927 12.442C0.529166 10.8609 0.523129 9.19529 0.939417 7.61109C1.35571 6.0269 2.17979 4.57942 3.32959 3.41283C4.47939 2.24625 5.91477 1.40126 7.49276 0.962054C7.75364 0.889441 8.03341 0.963101 8.22471 1.15477ZM17.1521 13.304C15.9741 13.4514 14.7746 13.374 13.618 13.0712C12.0097 12.6503 10.5425 11.8088 9.36701 10.6333C8.19149 9.45781 7.35005 7.99058 6.9291 6.38234C6.62637 5.22574 6.54896 4.02618 6.69631 2.84827C5.8425 3.24382 5.06328 3.79069 4.39791 4.46578C3.43208 5.44571 2.73985 6.66159 2.39017 7.99232C2.04048 9.32304 2.04555 10.7222 2.40487 12.0503C2.76419 13.3785 3.46522 14.5893 4.43813 15.5622C5.41103 16.5351 6.62187 17.2361 7.95002 17.5955C9.27817 17.9548 10.6773 17.9598 12.008 17.6102C13.3387 17.2605 14.5546 16.5682 15.5345 15.6024C16.2096 14.937 16.7565 14.1578 17.1521 13.304Z" fill="black"/>
</svg>
