<svg width="24" height="24" viewBox="0 0 24 24" fill="none" xmlns="http://www.w3.org/2000/svg">
<path fill-rule="evenodd" clip-rule="evenodd" d="M13.5 10.5C13.5 10.0858 13.8358 9.75 14.25 9.75H18C18.4142 9.75 18.75 10.0858 18.75 10.5C18.75 10.9142 18.4142 11.25 18 11.25H14.25C13.8358 11.25 13.5 10.9142 13.5 10.5Z" fill="#A2E6FA"/>
<path fill-rule="evenodd" clip-rule="evenodd" d="M13.5 13.5C13.5 13.0858 13.8358 12.75 14.25 12.75H18C18.4142 12.75 18.75 13.0858 18.75 13.5C18.75 13.9142 18.4142 14.25 18 14.25H14.25C13.8358 14.25 13.5 13.9142 13.5 13.5Z" fill="#A2E6FA"/>
<path fill-rule="evenodd" clip-rule="evenodd" d="M8.63477 9.75C7.80634 9.75 7.13477 10.4216 7.13477 11.25C7.13477 12.0784 7.80634 12.75 8.63477 12.75C9.46319 12.75 10.1348 12.0784 10.1348 11.25C10.1348 10.4216 9.46319 9.75 8.63477 9.75ZM5.63477 11.25C5.63477 9.59315 6.97791 8.25 8.63477 8.25C10.2916 8.25 11.6348 9.59315 11.6348 11.25C11.6348 12.9069 10.2916 14.25 8.63477 14.25C6.97791 14.25 5.63477 12.9069 5.63477 11.25Z" fill="#A2E6FA"/>
<path fill-rule="evenodd" clip-rule="evenodd" d="M8.63397 14.2441C8.13437 14.2441 7.64899 14.4104 7.25433 14.7168C6.85968 15.0231 6.5782 15.4521 6.45428 15.9361C6.35154 16.3373 5.94296 16.5793 5.54169 16.4766C5.14042 16.3738 4.89842 15.9653 5.00116 15.564C5.20769 14.7574 5.67682 14.0424 6.33457 13.5318C6.99233 13.0213 7.80131 12.7441 8.63397 12.7441C9.46663 12.7441 10.2756 13.0213 10.9334 13.5318C11.5911 14.0424 12.0602 14.7574 12.2668 15.564C12.3695 15.9653 12.1275 16.3738 11.7262 16.4766C11.325 16.5793 10.9164 16.3373 10.8137 15.9361C10.6897 15.4521 10.4083 15.0231 10.0136 14.7168C9.61895 14.4104 9.13356 14.2441 8.63397 14.2441Z" fill="#A2E6FA"/>
<path fill-rule="evenodd" clip-rule="evenodd" d="M2.25 5.25C2.25 4.42157 2.92157 3.75 3.75 3.75H20.25C21.0784 3.75 21.75 4.42157 21.75 5.25V18.75C21.75 19.5784 21.0784 20.25 20.25 20.25H3.75C2.92157 20.25 2.25 19.5784 2.25 18.75V5.25ZM20.25 5.25H3.75V18.75H20.25V5.25Z" fill="#A2E6FA"/>
</svg>
