<svg width="15" height="14" viewBox="0 0 15 14" fill="none" xmlns="http://www.w3.org/2000/svg">
<path fill-rule="evenodd" clip-rule="evenodd" d="M0.458984 3.9375C0.458984 3.45425 0.870323 3.0625 1.37773 3.0625H13.3215C13.8289 3.0625 14.2402 3.45425 14.2402 3.9375V10.0625C14.2402 10.5458 13.8289 10.9375 13.3215 10.9375H1.37773C0.870323 10.9375 0.458984 10.5458 0.458984 10.0625V3.9375ZM13.3215 3.9375H1.37773V10.0625H13.3215V3.9375Z" fill="#0D3A5C"/>
<path fill-rule="evenodd" clip-rule="evenodd" d="M7.34961 5.6875C6.58849 5.6875 5.97148 6.27513 5.97148 7C5.97148 7.72487 6.58849 8.3125 7.34961 8.3125C8.11073 8.3125 8.72773 7.72487 8.72773 7C8.72773 6.27513 8.11073 5.6875 7.34961 5.6875ZM5.05273 7C5.05273 5.79188 6.08108 4.8125 7.34961 4.8125C8.61814 4.8125 9.64648 5.79188 9.64648 7C9.64648 8.20812 8.61814 9.1875 7.34961 9.1875C6.08108 9.1875 5.05273 8.20812 5.05273 7Z" fill="#0D3A5C"/>
<path fill-rule="evenodd" clip-rule="evenodd" d="M9.76015 3.21191C9.92722 3.03007 10.2174 3.01164 10.4084 3.17075L14.0834 6.23325C14.2743 6.39237 14.2936 6.66876 14.1266 6.8506C13.9595 7.03244 13.6693 7.05087 13.4784 6.89176L9.80337 3.82926C9.61243 3.67015 9.59308 3.39375 9.76015 3.21191Z" fill="#0D3A5C"/>
<path fill-rule="evenodd" clip-rule="evenodd" d="M14.1266 7.14941C14.2936 7.33125 14.2743 7.60765 14.0834 7.76676L10.4084 10.8293C10.2174 10.9884 9.92722 10.9699 9.76015 10.7881C9.59308 10.6063 9.61243 10.3299 9.80337 10.1708L13.4784 7.10825C13.6693 6.94914 13.9595 6.96757 14.1266 7.14941Z" fill="#0D3A5C"/>
<path fill-rule="evenodd" clip-rule="evenodd" d="M4.93908 3.21191C5.10615 3.39375 5.0868 3.67015 4.89587 3.82926L1.22087 6.89176C1.02993 7.05087 0.739717 7.03244 0.572651 6.8506C0.405584 6.66876 0.424932 6.39237 0.615865 6.23325L4.29086 3.17075C4.4818 3.01164 4.77201 3.03007 4.93908 3.21191Z" fill="#0D3A5C"/>
<path fill-rule="evenodd" clip-rule="evenodd" d="M0.572651 7.14941C0.739717 6.96757 1.02993 6.94914 1.22087 7.10825L4.89587 10.1708C5.0868 10.3299 5.10615 10.6063 4.93908 10.7881C4.77201 10.9699 4.4818 10.9884 4.29086 10.8293L0.615865 7.76676C0.424932 7.60765 0.405584 7.33125 0.572651 7.14941Z" fill="#0D3A5C"/>
</svg>
