<svg width="24" height="24" viewBox="0 0 24 24" fill="none" xmlns="http://www.w3.org/2000/svg">
<path d="M13.5629 18.0504H10.7611C8.93038 18.0504 7.44573 16.51 7.44573 14.6123C7.44573 14.1546 7.82527 13.7751 8.28294 13.7751C8.74062 13.7751 9.12015 14.1546 9.12015 14.6123C9.12015 15.5834 9.8569 16.376 10.7611 16.376H13.5629C14.2885 16.376 14.8913 15.7286 14.8913 14.9472C14.8913 13.976 14.5453 13.7862 13.976 13.5853L9.47736 12.0002C8.60666 11.6988 7.43457 11.0513 7.43457 9.05321C7.43457 7.33414 8.78527 5.94995 10.4374 5.94995H13.2392C15.0699 5.94995 16.5546 7.49042 16.5546 9.38809C16.5546 9.84576 16.175 10.2253 15.7174 10.2253C15.2597 10.2253 14.8802 9.84576 14.8802 9.38809C14.8802 8.41693 14.1434 7.62437 13.2392 7.62437H10.4374C9.71178 7.62437 9.10899 8.27181 9.10899 9.05321C9.10899 10.0244 9.45504 10.2141 10.0243 10.4151L14.5229 12.0002C15.3936 12.3016 16.5657 12.949 16.5657 14.9472C16.5546 16.6551 15.215 18.0504 13.5629 18.0504Z" fill="#4C8DBE"/>
<path d="M12.0003 19.5351C11.5426 19.5351 11.1631 19.1556 11.1631 18.6979V5.30254C11.1631 4.84487 11.5426 4.46533 12.0003 4.46533C12.458 4.46533 12.8375 4.84487 12.8375 5.30254V18.6979C12.8375 19.1556 12.458 19.5351 12.0003 19.5351Z" fill="#4C8DBE"/>
<path d="M12 24C5.38047 24 0 18.6195 0 12C0 5.38047 5.38047 0 12 0C18.6195 0 24 5.38047 24 12C24 18.6195 18.6195 24 12 24ZM12 1.67442C6.30698 1.67442 1.67442 6.30698 1.67442 12C1.67442 17.693 6.30698 22.3256 12 22.3256C17.693 22.3256 22.3256 17.693 22.3256 12C22.3256 6.30698 17.693 1.67442 12 1.67442Z" fill="#4C8DBE"/>
</svg>
