<svg width="24" height="24" viewBox="0 0 24 24" fill="none" xmlns="http://www.w3.org/2000/svg">
<path fill-rule="evenodd" clip-rule="evenodd" d="M18.4765 11.2856C18.8348 11.0779 19.2938 11.1999 19.5015 11.5583L21.6484 15.2614C21.8561 15.6198 21.7341 16.0787 21.3757 16.2864C21.0174 16.4942 20.5584 16.3721 20.3507 16.0137L18.2038 12.3106C17.9961 11.9523 18.1182 11.4934 18.4765 11.2856Z" fill="black" fill-opacity="0.8"/>
<path fill-rule="evenodd" clip-rule="evenodd" d="M14.326 13.2583C14.734 13.1865 15.1229 13.4589 15.1948 13.8668L15.8604 17.6449C15.9323 18.0529 15.6599 18.4418 15.2519 18.5137C14.844 18.5856 14.455 18.3131 14.3832 17.9052L13.7176 14.1271C13.6457 13.7192 13.9181 13.3302 14.326 13.2583Z" fill="black" fill-opacity="0.8"/>
<path fill-rule="evenodd" clip-rule="evenodd" d="M9.66373 13.2488C10.0717 13.3204 10.3443 13.7093 10.2726 14.1172L9.60697 17.9047C9.53527 18.3127 9.14643 18.5853 8.73847 18.5136C8.33051 18.4419 8.05791 18.0531 8.12961 17.6451L8.79523 13.8576C8.86693 13.4497 9.25577 13.1771 9.66373 13.2488Z" fill="black" fill-opacity="0.8"/>
<path fill-rule="evenodd" clip-rule="evenodd" d="M5.51198 11.2848C5.87078 11.4918 5.99387 11.9504 5.7869 12.3092L3.64003 16.0311C3.43306 16.3899 2.97442 16.513 2.61562 16.306C2.25681 16.099 2.13373 15.6404 2.34069 15.2816L4.48757 11.5597C4.69453 11.2009 5.15318 11.0778 5.51198 11.2848Z" fill="black" fill-opacity="0.8"/>
<path fill-rule="evenodd" clip-rule="evenodd" d="M2.52877 9.2508C2.85101 8.99053 3.32322 9.04077 3.58348 9.363C5.07563 11.2104 7.7694 13.4999 12 13.4999C16.2306 13.4999 18.9244 11.2104 20.4166 9.363C20.6768 9.04077 21.149 8.99053 21.4713 9.2508C21.7935 9.51106 21.8437 9.98327 21.5835 10.3055C19.9256 12.3581 16.8444 14.9999 12 14.9999C7.15565 14.9999 4.07442 12.3581 2.41657 10.3055C2.1563 9.98327 2.20654 9.51106 2.52877 9.2508Z" fill="black" fill-opacity="0.8"/>
</svg>
