<svg width="26" height="24" viewBox="0 0 26 24" fill="none" xmlns="http://www.w3.org/2000/svg">
<path d="M14.81 2H6.34715C5.78603 2 5.24789 2.21071 4.85112 2.58579C4.45435 2.96086 4.23145 3.46957 4.23145 4V20C4.23145 20.5304 4.45435 21.0391 4.85112 21.4142C5.24789 21.7893 5.78603 22 6.34715 22H19.0414C19.6025 22 20.1406 21.7893 20.5374 21.4142C20.9342 21.0391 21.1571 20.5304 21.1571 20V8L14.81 2Z" stroke="black" stroke-width="2" stroke-linecap="round" stroke-linejoin="round"/>
<path d="M14.8098 2V8H21.1569" stroke="black" stroke-width="2" stroke-linecap="round" stroke-linejoin="round"/>
<path d="M16.9257 13H8.46289" stroke="black" stroke-width="2" stroke-linecap="round" stroke-linejoin="round"/>
<path d="M16.9257 17H8.46289" stroke="black" stroke-width="2" stroke-linecap="round" stroke-linejoin="round"/>
<path d="M10.5786 9H9.52074H8.46289" stroke="black" stroke-width="2" stroke-linecap="round" stroke-linejoin="round"/>
</svg>
