<svg width="24" height="24" viewBox="0 0 24 24" fill="none" xmlns="http://www.w3.org/2000/svg">
<path fill-rule="evenodd" clip-rule="evenodd" d="M16.1705 3.11529C15.0067 2.88378 13.8003 3.0026 12.7039 3.45673C11.6075 3.91085 10.6705 4.67989 10.0112 5.66658C9.35189 6.65328 9 7.81332 9 9V9.00282H8.99999C8.99713 9.76612 9.1439 10.5226 9.43202 11.2294C9.54594 11.5089 9.48124 11.8294 9.26783 12.0428L3.75 17.5607V20.25H6V18.75C6 18.3358 6.33579 18 6.75 18H8.25V16.5C8.25 16.0858 8.58579 15.75 9 15.75H10.9393L11.9572 14.7322L12.4875 15.2625L12.7706 14.568C13.4774 14.8561 14.2339 15.0029 14.9972 15L15 15C16.1867 15 17.3467 14.6481 18.3334 13.9888C19.3201 13.3295 20.0892 12.3925 20.5433 11.2961C20.9974 10.1997 21.1162 8.99335 20.8847 7.82946C20.6532 6.66558 20.0818 5.59648 19.2426 4.75736C18.4035 3.91825 17.3344 3.3468 16.1705 3.11529ZM12.679 16.1317L11.7803 17.0303C11.6397 17.171 11.4489 17.25 11.25 17.25H9.75V18.75C9.75 19.1642 9.41421 19.5 9 19.5H7.5V21C7.5 21.4142 7.16421 21.75 6.75 21.75H3C2.58579 21.75 2.25 21.4142 2.25 21V17.25C2.25 17.0511 2.32902 16.8603 2.46967 16.7197L7.86834 11.321C7.62191 10.5727 7.49718 9.7886 7.5 8.99861C7.50027 7.51574 7.94012 6.06621 8.76398 4.83323C9.58809 3.59986 10.7594 2.63856 12.1299 2.07091C13.5003 1.50325 15.0083 1.35472 16.4632 1.64411C17.918 1.9335 19.2544 2.64781 20.3033 3.6967C21.3522 4.7456 22.0665 6.08197 22.3559 7.53683C22.6453 8.99168 22.4968 10.4997 21.9291 11.8701C21.3614 13.2406 20.4001 14.4119 19.1668 15.236C17.9338 16.0599 16.4843 16.4997 15.0014 16.5C15.0009 16.5 15.0005 16.5 15 16.5V15.75L15.0028 16.5C15.0023 16.5 15.0019 16.5 15.0014 16.5C14.2114 16.5028 13.4273 16.3781 12.679 16.1317Z" fill="black"/>
<path d="M16.875 8.25C17.4963 8.25 18 7.74632 18 7.125C18 6.50368 17.4963 6 16.875 6C16.2537 6 15.75 6.50368 15.75 7.125C15.75 7.74632 16.2537 8.25 16.875 8.25Z" fill="black"/>
</svg>
