<svg width="24" height="24" viewBox="0 0 24 24" fill="none" xmlns="http://www.w3.org/2000/svg">
<path fill-rule="evenodd" clip-rule="evenodd" d="M12 3C12.4142 3 12.75 3.33579 12.75 3.75V20.25C12.75 20.6642 12.4142 21 12 21C11.5858 21 11.25 20.6642 11.25 20.25V3.75C11.25 3.33579 11.5858 3 12 3Z" fill="#0D3A5C"/>
<path fill-rule="evenodd" clip-rule="evenodd" d="M9 20.25C9 19.8358 9.33579 19.5 9.75 19.5H14.25C14.6642 19.5 15 19.8358 15 20.25C15 20.6642 14.6642 21 14.25 21H9.75C9.33579 21 9 20.6642 9 20.25Z" fill="#0D3A5C"/>
<path fill-rule="evenodd" clip-rule="evenodd" d="M19.4821 5.08734C19.5719 5.49169 19.317 5.89232 18.9126 5.98218L5.41261 8.98218C5.00826 9.07203 4.60763 8.81709 4.51778 8.41274C4.42792 8.00839 4.68287 7.60775 5.08722 7.5179L18.5872 4.5179C18.9916 4.42804 19.3922 4.68299 19.4821 5.08734Z" fill="#0D3A5C"/>
<path fill-rule="evenodd" clip-rule="evenodd" d="M5.25 7.5C5.55668 7.5 5.83246 7.68671 5.94636 7.97146L8.94636 15.4715C8.98179 15.56 9 15.6546 9 15.75C9 16.9208 8.31715 17.698 7.54947 18.1453C6.80411 18.5796 5.91805 18.75 5.25 18.75C4.58195 18.75 3.69589 18.5796 2.95053 18.1453C2.18285 17.698 1.5 16.9208 1.5 15.75C1.5 15.6546 1.51821 15.56 1.55364 15.4715L4.55364 7.97146C4.66754 7.68671 4.94332 7.5 5.25 7.5ZM3.00619 15.879C3.0476 16.3007 3.29538 16.6102 3.70572 16.8493C4.17911 17.1251 4.79305 17.25 5.25 17.25C5.70695 17.25 6.32089 17.1251 6.79428 16.8493C7.20462 16.6102 7.4524 16.3007 7.49381 15.879L5.25 10.2694L3.00619 15.879Z" fill="#0D3A5C"/>
<path fill-rule="evenodd" clip-rule="evenodd" d="M18.75 4.5C19.0567 4.5 19.3325 4.68671 19.4464 4.97146L22.4464 12.4715C22.4818 12.56 22.5 12.6546 22.5 12.75C22.5 13.9208 21.8171 14.698 21.0495 15.1453C20.3041 15.5796 19.4181 15.75 18.75 15.75C18.0819 15.75 17.1959 15.5796 16.4505 15.1453C15.6829 14.698 15 13.9208 15 12.75C15 12.6546 15.0182 12.56 15.0536 12.4715L18.0536 4.97146C18.1675 4.68671 18.4433 4.5 18.75 4.5ZM16.5062 12.879C16.5476 13.3007 16.7954 13.6102 17.2057 13.8493C17.6791 14.1251 18.2931 14.25 18.75 14.25C19.2069 14.25 19.8209 14.1251 20.2943 13.8493C20.7046 13.6102 20.9524 13.3007 20.9938 12.879L18.75 7.26944L16.5062 12.879Z" fill="#0D3A5C"/>
</svg>
