<svg width="24" height="24" viewBox="0 0 24 24" fill="none" xmlns="http://www.w3.org/2000/svg">
<path fill-rule="evenodd" clip-rule="evenodd" d="M2.625 4.125C2.625 3.29657 3.29657 2.625 4.125 2.625H19.875C20.7034 2.625 21.375 3.29657 21.375 4.125V19.875C21.375 20.7034 20.7034 21.375 19.875 21.375H4.125C3.29657 21.375 2.625 20.7034 2.625 19.875V4.125ZM19.875 4.125H4.125V19.875H19.875V4.125Z" fill="#0D3A5C"/>
<path fill-rule="evenodd" clip-rule="evenodd" d="M11.25 9.75C11.6642 9.75 12 10.0858 12 10.5V16.5C12 16.9142 11.6642 17.25 11.25 17.25C10.8358 17.25 10.5 16.9142 10.5 16.5V10.5C10.5 10.0858 10.8358 9.75 11.25 9.75Z" fill="#0D3A5C"/>
<path fill-rule="evenodd" clip-rule="evenodd" d="M8.25 9.75C8.66421 9.75 9 10.0858 9 10.5V16.5C9 16.9142 8.66421 17.25 8.25 17.25C7.83579 17.25 7.5 16.9142 7.5 16.5V10.5C7.5 10.0858 7.83579 9.75 8.25 9.75Z" fill="#0D3A5C"/>
<path fill-rule="evenodd" clip-rule="evenodd" d="M13.875 11.25C13.3777 11.25 12.9008 11.4475 12.5492 11.7992C12.1975 12.1508 12 12.6277 12 13.125C12 13.5392 11.6642 13.875 11.25 13.875C10.8358 13.875 10.5 13.5392 10.5 13.125C10.5 12.2299 10.8556 11.3715 11.4885 10.7385C12.1214 10.1056 12.9799 9.75 13.875 9.75C14.7701 9.75 15.6286 10.1056 16.2615 10.7385C16.8944 11.3715 17.25 12.2299 17.25 13.125V16.5C17.25 16.9142 16.9142 17.25 16.5 17.25C16.0858 17.25 15.75 16.9142 15.75 16.5V13.125C15.75 12.6277 15.5525 12.1508 15.2008 11.7992C14.8492 11.4475 14.3723 11.25 13.875 11.25Z" fill="#0D3A5C"/>
<path d="M8.25 8.625C8.87132 8.625 9.375 8.12132 9.375 7.5C9.375 6.87868 8.87132 6.375 8.25 6.375C7.62868 6.375 7.125 6.87868 7.125 7.5C7.125 8.12132 7.62868 8.625 8.25 8.625Z" fill="#0D3A5C"/>
</svg>
