<svg width="24" height="24" viewBox="0 0 24 24" fill="none" xmlns="http://www.w3.org/2000/svg">
<path fill-rule="evenodd" clip-rule="evenodd" d="M12 6C12.4142 6 12.75 6.33579 12.75 6.75V8.25C12.75 8.66421 12.4142 9 12 9C11.5858 9 11.25 8.66421 11.25 8.25V6.75C11.25 6.33579 11.5858 6 12 6Z" fill="#0D3A5C"/>
<path fill-rule="evenodd" clip-rule="evenodd" d="M12 15C12.4142 15 12.75 15.3358 12.75 15.75V17.25C12.75 17.6642 12.4142 18 12 18C11.5858 18 11.25 17.6642 11.25 17.25V15.75C11.25 15.3358 11.5858 15 12 15Z" fill="#0D3A5C"/>
<path fill-rule="evenodd" clip-rule="evenodd" d="M12 3.75C7.44365 3.75 3.75 7.44365 3.75 12C3.75 16.5563 7.44365 20.25 12 20.25C16.5563 20.25 20.25 16.5563 20.25 12C20.25 7.44365 16.5563 3.75 12 3.75ZM2.25 12C2.25 6.61522 6.61522 2.25 12 2.25C17.3848 2.25 21.75 6.61522 21.75 12C21.75 17.3848 17.3848 21.75 12 21.75C6.61522 21.75 2.25 17.3848 2.25 12Z" fill="#0D3A5C"/>
<path fill-rule="evenodd" clip-rule="evenodd" d="M10.875 9C10.5766 9 10.2905 9.11853 10.0795 9.3295C9.86853 9.54048 9.75 9.82663 9.75 10.125C9.75 10.4234 9.86853 10.7095 10.0795 10.9205C10.2905 11.1315 10.5766 11.25 10.875 11.25H13.125C13.8212 11.25 14.4889 11.5266 14.9812 12.0188C15.4734 12.5111 15.75 13.1788 15.75 13.875C15.75 14.5712 15.4734 15.2389 14.9812 15.7312C14.4889 16.2234 13.8212 16.5 13.125 16.5H9.75C9.33579 16.5 9 16.1642 9 15.75C9 15.3358 9.33579 15 9.75 15H13.125C13.4234 15 13.7095 14.8815 13.9205 14.6705C14.1315 14.4595 14.25 14.1734 14.25 13.875C14.25 13.5766 14.1315 13.2905 13.9205 13.0795C13.7095 12.8685 13.4234 12.75 13.125 12.75H10.875C10.1788 12.75 9.51113 12.4734 9.01884 11.9812C8.52656 11.4889 8.25 10.8212 8.25 10.125C8.25 9.42881 8.52656 8.76113 9.01884 8.26884C9.51113 7.77656 10.1788 7.5 10.875 7.5H14.25C14.6642 7.5 15 7.83579 15 8.25C15 8.66421 14.6642 9 14.25 9H10.875Z" fill="#0D3A5C"/>
</svg>
