<svg width="24" height="24" viewBox="0 0 24 24" fill="none" xmlns="http://www.w3.org/2000/svg">
<path fill-rule="evenodd" clip-rule="evenodd" d="M6.75 6C6.75 5.58579 7.08579 5.25 7.5 5.25H16.5C16.9142 5.25 17.25 5.58579 17.25 6V10.5C17.25 10.9142 16.9142 11.25 16.5 11.25H7.5C7.08579 11.25 6.75 10.9142 6.75 10.5V6ZM8.25 6.75V9.75H15.75V6.75H8.25Z" fill="#0D3A5C"/>
<path fill-rule="evenodd" clip-rule="evenodd" d="M18.75 2.25C19.5784 2.25 20.25 2.92157 20.25 3.75V20.25C20.25 21.0784 19.5784 21.75 18.75 21.75H5.25C4.42157 21.75 3.75 21.0784 3.75 20.25V3.75C3.75 2.92157 4.42157 2.25 5.25 2.25L18.75 2.25ZM18.75 20.25V3.75L5.25 3.75L5.25 20.25H18.75Z" fill="#0D3A5C"/>
<path d="M8.25 15C8.87132 15 9.375 14.4963 9.375 13.875C9.375 13.2537 8.87132 12.75 8.25 12.75C7.62868 12.75 7.125 13.2537 7.125 13.875C7.125 14.4963 7.62868 15 8.25 15Z" fill="#0D3A5C"/>
<path d="M12 15C12.6213 15 13.125 14.4963 13.125 13.875C13.125 13.2537 12.6213 12.75 12 12.75C11.3787 12.75 10.875 13.2537 10.875 13.875C10.875 14.4963 11.3787 15 12 15Z" fill="#0D3A5C"/>
<path d="M15.75 15C16.3713 15 16.875 14.4963 16.875 13.875C16.875 13.2537 16.3713 12.75 15.75 12.75C15.1287 12.75 14.625 13.2537 14.625 13.875C14.625 14.4963 15.1287 15 15.75 15Z" fill="#0D3A5C"/>
<path d="M8.25 18.75C8.87132 18.75 9.375 18.2463 9.375 17.625C9.375 17.0037 8.87132 16.5 8.25 16.5C7.62868 16.5 7.125 17.0037 7.125 17.625C7.125 18.2463 7.62868 18.75 8.25 18.75Z" fill="#0D3A5C"/>
<path d="M12 18.75C12.6213 18.75 13.125 18.2463 13.125 17.625C13.125 17.0037 12.6213 16.5 12 16.5C11.3787 16.5 10.875 17.0037 10.875 17.625C10.875 18.2463 11.3787 18.75 12 18.75Z" fill="#0D3A5C"/>
<path d="M15.75 18.75C16.3713 18.75 16.875 18.2463 16.875 17.625C16.875 17.0037 16.3713 16.5 15.75 16.5C15.1287 16.5 14.625 17.0037 14.625 17.625C14.625 18.2463 15.1287 18.75 15.75 18.75Z" fill="#0D3A5C"/>
</svg>
