<svg width="24" height="24" viewBox="0 0 24 24" fill="none" xmlns="http://www.w3.org/2000/svg">
<path fill-rule="evenodd" clip-rule="evenodd" d="M3 3.75C3.41421 3.75 3.75 4.08579 3.75 4.5V18.75H21C21.4142 18.75 21.75 19.0858 21.75 19.5C21.75 19.9142 21.4142 20.25 21 20.25H3C2.58579 20.25 2.25 19.9142 2.25 19.5V4.5C2.25 4.08579 2.58579 3.75 3 3.75Z" fill="#0D3A5C"/>
<path fill-rule="evenodd" clip-rule="evenodd" d="M21.5644 8.50613C21.8372 8.81786 21.8056 9.29168 21.4939 9.56444L15.4939 14.8144C15.2272 15.0478 14.8335 15.0626 14.55 14.85L9.03636 10.7148L3.49389 15.5644C3.18216 15.8372 2.70834 15.8056 2.43558 15.4939C2.16282 15.1822 2.1944 14.7083 2.50613 14.4356L8.50613 9.18558C8.77284 8.95221 9.1665 8.93737 9.45001 9.15001L14.9637 13.2852L20.5061 8.43558C20.8179 8.16282 21.2917 8.1944 21.5644 8.50613Z" fill="#0D3A5C"/>
</svg>
