<svg width="24" height="24" viewBox="0 0 24 24" fill="none" xmlns="http://www.w3.org/2000/svg">
<path d="M8 13.25C8 14.2189 8.89055 15 9.997 15H12.2549C13.2174 15 14 14.3165 14 13.4753C14 12.559 13.5232 12.2361 12.8126 12.0258L9.18741 10.9742C8.47676 10.7639 8 10.441 8 9.52468C8 8.68348 8.78261 8 9.74513 8H12.003C13.1094 8 14 8.78112 14 9.75" stroke="#4C8DBE" stroke-width="1.5" stroke-linecap="round" stroke-linejoin="round"/>
<path d="M11 7V16" stroke="#4C8DBE" stroke-width="1.5" stroke-linecap="round" stroke-linejoin="round"/>
<path d="M21 12C21 6.48 16.52 2 11 2C5.48 2 1 6.48 1 12C1 17.52 5.48 22 11 22" stroke="#4C8DBE" stroke-width="1.5" stroke-linecap="round" stroke-linejoin="round"/>
<path d="M18.2 22.4C19.9673 22.4 21.4 20.9673 21.4 19.2C21.4 17.4327 19.9673 16 18.2 16C16.4327 16 15 17.4327 15 19.2C15 20.9673 16.4327 22.4 18.2 22.4Z" stroke="#4C8DBE" stroke-width="1.5" stroke-linecap="round" stroke-linejoin="round"/>
<path d="M22 23L21 22" stroke="#4C8DBE" stroke-width="1.5" stroke-linecap="round" stroke-linejoin="round"/>
</svg>
