<svg width="12" height="12" viewBox="0 0 12 12" fill="none" xmlns="http://www.w3.org/2000/svg">
<path fill-rule="evenodd" clip-rule="evenodd" d="M1.5 1.875C1.70711 1.875 1.875 2.04289 1.875 2.25V9.375H10.5C10.7071 9.375 10.875 9.54289 10.875 9.75C10.875 9.95711 10.7071 10.125 10.5 10.125H1.5C1.29289 10.125 1.125 9.95711 1.125 9.75V2.25C1.125 2.04289 1.29289 1.875 1.5 1.875Z" fill="black"/>
<path fill-rule="evenodd" clip-rule="evenodd" d="M10.0152 2.73483C10.1616 2.88128 10.1616 3.11872 10.0152 3.26517L6.26516 7.01516C6.11872 7.16161 5.88128 7.16161 5.73484 7.01516L4.5 5.78033L1.76517 8.51516C1.61872 8.66161 1.38128 8.66161 1.23483 8.51516C1.08839 8.36872 1.08839 8.13128 1.23483 7.98484L4.23484 4.98484C4.38128 4.83839 4.61872 4.83839 4.76516 4.98484L6 6.21967L9.48483 2.73483C9.63128 2.58839 9.86872 2.58839 10.0152 2.73483Z" fill="black"/>
<path fill-rule="evenodd" clip-rule="evenodd" d="M7.5 3C7.5 2.79289 7.66789 2.625 7.875 2.625H9.75C9.95711 2.625 10.125 2.79289 10.125 3V4.875C10.125 5.08211 9.95711 5.25 9.75 5.25C9.54289 5.25 9.375 5.08211 9.375 4.875V3.375H7.875C7.66789 3.375 7.5 3.20711 7.5 3Z" fill="black"/>
</svg>
