<svg width="24" height="24" viewBox="0 0 24 24" fill="none" xmlns="http://www.w3.org/2000/svg">
<path fill-rule="evenodd" clip-rule="evenodd" d="M3.375 12.75C3.375 12.3358 3.71079 12 4.125 12H9.375C9.78921 12 10.125 12.3358 10.125 12.75C10.125 13.1642 9.78921 13.5 9.375 13.5H4.875V19.5C4.875 19.9142 4.53921 20.25 4.125 20.25C3.71079 20.25 3.375 19.9142 3.375 19.5V12.75Z" fill="#0D3A5C"/>
<path fill-rule="evenodd" clip-rule="evenodd" d="M1.875 19.5C1.875 19.0858 2.21079 18.75 2.625 18.75H21.375C21.7892 18.75 22.125 19.0858 22.125 19.5C22.125 19.9142 21.7892 20.25 21.375 20.25H2.625C2.21079 20.25 1.875 19.9142 1.875 19.5Z" fill="#0D3A5C"/>
<path fill-rule="evenodd" clip-rule="evenodd" d="M8.625 8.25C8.625 7.83579 8.96079 7.5 9.375 7.5H14.625C15.0392 7.5 15.375 7.83579 15.375 8.25C15.375 8.66421 15.0392 9 14.625 9H10.125V19.5C10.125 19.9142 9.78921 20.25 9.375 20.25C8.96079 20.25 8.625 19.9142 8.625 19.5V8.25Z" fill="#0D3A5C"/>
<path fill-rule="evenodd" clip-rule="evenodd" d="M13.875 3.75C13.875 3.33579 14.2108 3 14.625 3H19.875C20.2892 3 20.625 3.33579 20.625 3.75V19.5C20.625 19.9142 20.2892 20.25 19.875 20.25H14.625C14.2108 20.25 13.875 19.9142 13.875 19.5V3.75ZM15.375 4.5V18.75H19.125V4.5H15.375Z" fill="#0D3A5C"/>
</svg>
