<svg width="24" height="24" viewBox="0 0 24 24" fill="none" xmlns="http://www.w3.org/2000/svg">
<path fill-rule="evenodd" clip-rule="evenodd" d="M3.43934 4.18934C3.72064 3.90804 4.10217 3.75 4.5 3.75H19.5C19.8978 3.75 20.2794 3.90804 20.5607 4.18934C20.842 4.47065 21 4.85218 21 5.25V10.7531C21 19.1427 13.8772 21.9192 12.4804 22.3836C12.1698 22.4948 11.8302 22.4948 11.5196 22.3836C10.1228 21.9192 3 19.1427 3 10.7531V5.25C3 4.85217 3.15804 4.47064 3.43934 4.18934ZM19.5 5.25L4.5 5.25L4.5 10.7531C4.5 18.0901 10.706 20.534 12 20.9626C13.294 20.534 19.5 18.0901 19.5 10.7531V5.25Z" fill="black"/>
<path fill-rule="evenodd" clip-rule="evenodd" d="M16.6677 9.2323C16.9536 9.532 16.9424 10.0067 16.6427 10.2927L11.1396 15.5427C10.8496 15.8193 10.3934 15.8191 10.1037 15.5422L7.35684 12.9172C7.05738 12.631 7.0466 12.1563 7.33278 11.8568C7.61895 11.5574 8.0937 11.5466 8.39317 11.8328L10.6223 13.963L15.6073 9.20734C15.907 8.92142 16.3817 8.93259 16.6677 9.2323Z" fill="black"/>
</svg>
