<svg width="24" height="24" viewBox="0 0 24 24" fill="none" xmlns="http://www.w3.org/2000/svg">
<g clip-path="url(#clip0_682_25856)">
<path d="M11.75 21.5C17.1348 21.5 21.5 17.1348 21.5 11.75C21.5 6.36522 17.1348 2 11.75 2C6.36522 2 2 6.36522 2 11.75C2 17.1348 6.36522 21.5 11.75 21.5Z" stroke="#D09200" stroke-width="1.5" stroke-linecap="round" stroke-linejoin="round"/>
<path d="M9.08984 9.00002C9.32495 8.33169 9.789 7.76813 10.3998 7.40915C11.0106 7.05018 11.7287 6.91896 12.427 7.03873C13.1253 7.15851 13.7587 7.52154 14.2149 8.06355C14.6712 8.60555 14.9209 9.29154 14.9198 10C14.9198 12 11.9198 13 11.9198 13" stroke="#D09200" stroke-width="1.5" stroke-linecap="round" stroke-linejoin="round"/>
<path d="M12 17H12.01" stroke="#D09200" stroke-width="2" stroke-linecap="round" stroke-linejoin="round"/>
</g>
<defs>
<clipPath id="clip0_682_25856">
<rect width="24" height="24" fill="white"/>
</clipPath>
</defs>
</svg>
