<svg width="16" height="16" viewBox="0 0 16 16" fill="none" xmlns="http://www.w3.org/2000/svg">
<path d="M4.58594 12.6007C4.3126 12.6007 4.08594 12.374 4.08594 12.1007V10.7207C4.08594 10.4474 4.3126 10.2207 4.58594 10.2207C4.85927 10.2207 5.08594 10.4474 5.08594 10.7207V12.1007C5.08594 12.3807 4.85927 12.6007 4.58594 12.6007Z" fill="white"/>
<path d="M8 12.6007C7.72667 12.6007 7.5 12.374 7.5 12.1007V9.33398C7.5 9.06065 7.72667 8.83398 8 8.83398C8.27333 8.83398 8.5 9.06065 8.5 9.33398V12.1007C8.5 12.3807 8.27333 12.6007 8 12.6007Z" fill="white"/>
<path d="M11.4141 12.5998C11.1407 12.5998 10.9141 12.3731 10.9141 12.0998V7.95312C10.9141 7.67979 11.1407 7.45312 11.4141 7.45312C11.6874 7.45312 11.9141 7.67979 11.9141 7.95312V12.0998C11.9141 12.3798 11.6941 12.5998 11.4141 12.5998Z" fill="white"/>
<path d="M4.58574 8.78694C4.35907 8.78694 4.15907 8.63361 4.09907 8.40694C4.03241 8.14027 4.19241 7.86694 4.46574 7.80027C6.91907 7.18694 9.07907 5.84694 10.7257 3.93361L11.0324 3.57361C11.2124 3.36694 11.5257 3.34027 11.7391 3.52027C11.9457 3.70027 11.9724 4.01361 11.7924 4.22694L11.4857 4.58694C9.70574 6.66694 7.35907 8.11361 4.70574 8.77361C4.66574 8.78694 4.62574 8.78694 4.58574 8.78694Z" fill="white"/>
<path d="M11.4143 6.34706C11.1409 6.34706 10.9143 6.12039 10.9143 5.84706V4.40039H9.46094C9.1876 4.40039 8.96094 4.17372 8.96094 3.90039C8.96094 3.62706 9.1876 3.40039 9.46094 3.40039H11.4143C11.6876 3.40039 11.9143 3.62706 11.9143 3.90039V5.85372C11.9143 6.12706 11.6943 6.34706 11.4143 6.34706Z" fill="white"/>
<path d="M10.0007 15.1673H6.00065C2.38065 15.1673 0.833984 13.6207 0.833984 10.0007V6.00065C0.833984 2.38065 2.38065 0.833984 6.00065 0.833984H10.0007C13.6207 0.833984 15.1673 2.38065 15.1673 6.00065V10.0007C15.1673 13.6207 13.6207 15.1673 10.0007 15.1673ZM6.00065 1.83398C2.92732 1.83398 1.83398 2.92732 1.83398 6.00065V10.0007C1.83398 13.074 2.92732 14.1673 6.00065 14.1673H10.0007C13.074 14.1673 14.1673 13.074 14.1673 10.0007V6.00065C14.1673 2.92732 13.074 1.83398 10.0007 1.83398H6.00065Z" fill="white"/>
</svg>
