<svg width="24" height="24" viewBox="0 0 24 24" fill="none" xmlns="http://www.w3.org/2000/svg">
<path fill-rule="evenodd" clip-rule="evenodd" d="M19.2803 4.71967C19.5732 5.01256 19.5732 5.48744 19.2803 5.78033L5.78033 19.2803C5.48744 19.5732 5.01256 19.5732 4.71967 19.2803C4.42678 18.9874 4.42678 18.5126 4.71967 18.2197L18.2197 4.71967C18.5126 4.42678 18.9874 4.42678 19.2803 4.71967Z" fill="#0D3A5C"/>
<path fill-rule="evenodd" clip-rule="evenodd" d="M7.125 5.25C6.08947 5.25 5.25 6.08947 5.25 7.125C5.25 8.16053 6.08947 9 7.125 9C8.16053 9 9 8.16053 9 7.125C9 6.08947 8.16053 5.25 7.125 5.25ZM3.75 7.125C3.75 5.26104 5.26104 3.75 7.125 3.75C8.98896 3.75 10.5 5.26104 10.5 7.125C10.5 8.98896 8.98896 10.5 7.125 10.5C5.26104 10.5 3.75 8.98896 3.75 7.125Z" fill="#0D3A5C"/>
<path fill-rule="evenodd" clip-rule="evenodd" d="M16.875 15C15.8395 15 15 15.8395 15 16.875C15 17.9105 15.8395 18.75 16.875 18.75C17.9105 18.75 18.75 17.9105 18.75 16.875C18.75 15.8395 17.9105 15 16.875 15ZM13.5 16.875C13.5 15.011 15.011 13.5 16.875 13.5C18.739 13.5 20.25 15.011 20.25 16.875C20.25 18.739 18.739 20.25 16.875 20.25C15.011 20.25 13.5 18.739 13.5 16.875Z" fill="#0D3A5C"/>
</svg>
