<svg width="24" height="24" viewBox="0 0 24 24" fill="none" xmlns="http://www.w3.org/2000/svg">
<path fill-rule="evenodd" clip-rule="evenodd" d="M12 3.75C9.1005 3.75 6.75 6.1005 6.75 9C6.75 11.8995 9.1005 14.25 12 14.25C14.8995 14.25 17.25 11.8995 17.25 9C17.25 6.1005 14.8995 3.75 12 3.75ZM5.25 9C5.25 5.27208 8.27208 2.25 12 2.25C15.7279 2.25 18.75 5.27208 18.75 9C18.75 12.7279 15.7279 15.75 12 15.75C8.27208 15.75 5.25 12.7279 5.25 9Z" fill="#0D3A5C"/>
<path fill-rule="evenodd" clip-rule="evenodd" d="M12.0001 15.7491C10.2885 15.7491 8.60702 16.1997 7.12474 17.0556C5.64246 17.9115 4.41161 19.1425 3.55593 20.6249C3.34886 20.9837 2.89017 21.1066 2.53144 20.8995C2.1727 20.6925 2.04975 20.2338 2.25682 19.875C3.24415 18.1646 4.66435 16.7442 6.37468 15.7566C8.085 14.7691 10.0252 14.2491 12.0001 14.2491C13.9751 14.2491 15.9153 14.7691 17.6256 15.7566C19.3359 16.7442 20.7561 18.1646 21.7434 19.875C21.9505 20.2338 21.8276 20.6925 21.4688 20.8995C21.1101 21.1066 20.6514 20.9837 20.4443 20.6249C19.5886 19.1425 18.3578 17.9115 16.8755 17.0556C15.3932 16.1997 13.7118 15.7491 12.0001 15.7491Z" fill="#0D3A5C"/>
</svg>
