<svg width="24" height="24" viewBox="0 0 24 24" fill="none" xmlns="http://www.w3.org/2000/svg">
<path fill-rule="evenodd" clip-rule="evenodd" d="M7.5 6.75C5.84315 6.75 4.5 8.09315 4.5 9.75C4.5 11.4069 5.84315 12.75 7.5 12.75C9.15685 12.75 10.5 11.4069 10.5 9.75C10.5 8.09315 9.15685 6.75 7.5 6.75ZM3 9.75C3 7.26472 5.01472 5.25 7.5 5.25C9.98528 5.25 12 7.26472 12 9.75C12 12.2353 9.98528 14.25 7.5 14.25C5.01472 14.25 3 12.2353 3 9.75Z" fill="#0D3A5C"/>
<path fill-rule="evenodd" clip-rule="evenodd" d="M13.5 7.5C13.5 7.08579 13.8358 6.75 14.25 6.75H23.25C23.6642 6.75 24 7.08579 24 7.5C24 7.91421 23.6642 8.25 23.25 8.25H14.25C13.8358 8.25 13.5 7.91421 13.5 7.5Z" fill="#0D3A5C"/>
<path fill-rule="evenodd" clip-rule="evenodd" d="M13.5 12C13.5 11.5858 13.8358 11.25 14.25 11.25H23.25C23.6642 11.25 24 11.5858 24 12C24 12.4142 23.6642 12.75 23.25 12.75H14.25C13.8358 12.75 13.5 12.4142 13.5 12Z" fill="#0D3A5C"/>
<path fill-rule="evenodd" clip-rule="evenodd" d="M15.75 16.5C15.75 16.0858 16.0858 15.75 16.5 15.75H23.25C23.6642 15.75 24 16.0858 24 16.5C24 16.9142 23.6642 17.25 23.25 17.25H16.5C16.0858 17.25 15.75 16.9142 15.75 16.5Z" fill="#0D3A5C"/>
<path fill-rule="evenodd" clip-rule="evenodd" d="M7.50018 14.2383C6.33446 14.2383 5.20189 14.6263 4.28103 15.341C3.36016 16.0558 2.70339 17.0568 2.41424 18.1861C2.3115 18.5873 1.90292 18.8293 1.50165 18.7266C1.10038 18.6239 0.858377 18.2153 0.961118 17.814C1.33288 16.3621 2.1773 15.0751 3.36127 14.1561C4.54523 13.2371 6.00139 12.7383 7.50018 12.7383C8.99897 12.7383 10.4551 13.2371 11.6391 14.1561C12.8231 15.0751 13.6675 16.3621 14.0392 17.814C14.142 18.2153 13.9 18.6239 13.4987 18.7266C13.0974 18.8293 12.6889 18.5873 12.5861 18.1861C12.297 17.0568 11.6402 16.0558 10.7193 15.341C9.79847 14.6263 8.6659 14.2383 7.50018 14.2383Z" fill="#0D3A5C"/>
</svg>
