<svg width="16" height="16" viewBox="0 0 16 16" fill="none" xmlns="http://www.w3.org/2000/svg">
<path fill-rule="evenodd" clip-rule="evenodd" d="M5.5 4C3.98122 4 2.75 5.23122 2.75 6.75C2.75 8.26878 3.98122 9.5 5.5 9.5C7.01878 9.5 8.25 8.26878 8.25 6.75C8.25 5.23122 7.01878 4 5.5 4ZM1.75 6.75C1.75 4.67893 3.42893 3 5.5 3C7.57107 3 9.25 4.67893 9.25 6.75C9.25 8.82107 7.57107 10.5 5.5 10.5C3.42893 10.5 1.75 8.82107 1.75 6.75Z" fill="black"/>
<path fill-rule="evenodd" clip-rule="evenodd" d="M10.5923 3L10.5938 3C11.5883 3 12.5422 3.39509 13.2454 4.09835C13.9487 4.80161 14.3438 5.75544 14.3438 6.75C14.3438 7.74457 13.9487 8.69839 13.2454 9.40165C12.5422 10.1049 11.5883 10.5 10.5938 10.5C10.3176 10.5 10.0938 10.2761 10.0938 10C10.0938 9.72386 10.3176 9.5 10.5938 9.5C11.3231 9.5 12.0226 9.21027 12.5383 8.69455C13.054 8.17882 13.3438 7.47935 13.3438 6.75C13.3438 6.02066 13.054 5.32118 12.5383 4.80546C12.0228 4.28991 11.3236 4.0002 10.5945 4C10.3408 4.00084 10.0883 4.0349 9.84341 4.10132C9.57689 4.1736 9.30224 4.01615 9.22996 3.74963C9.15768 3.48312 9.31513 3.20847 9.58165 3.13619C9.91112 3.04683 10.2509 3.00104 10.5923 3Z" fill="black"/>
<path fill-rule="evenodd" clip-rule="evenodd" d="M5.50004 10.5C4.69767 10.5 3.90708 10.6931 3.19505 11.063C2.48302 11.4329 1.87047 11.9687 1.40913 12.6252C1.25036 12.8511 0.938497 12.9056 0.712562 12.7468C0.486628 12.588 0.432181 12.2762 0.590951 12.0502C1.14455 11.2625 1.87961 10.6195 2.73405 10.1756C3.58848 9.73172 4.53719 9.5 5.50004 9.5C6.46289 9.5 7.4116 9.73172 8.26604 10.1756C9.12047 10.6195 9.85553 11.2625 10.4091 12.0502C10.5679 12.2762 10.5135 12.588 10.2875 12.7468C10.0616 12.9056 9.74972 12.8511 9.59095 12.6252C9.12962 11.9687 8.51707 11.4329 7.80504 11.063C7.09301 10.6931 6.30242 10.5 5.50004 10.5Z" fill="black"/>
<path fill-rule="evenodd" clip-rule="evenodd" d="M12.8991 11.0622C12.1871 10.6923 11.3964 10.4995 10.5941 10.5C10.3179 10.5002 10.0939 10.2765 10.0938 10.0003C10.0936 9.72417 10.3173 9.50017 10.5934 9.5C11.5565 9.4994 12.5055 9.73086 13.3601 10.1748C14.2147 10.6187 14.9497 11.262 15.503 12.0502C15.6616 12.2763 15.607 12.5881 15.381 12.7467C15.155 12.9054 14.8432 12.8508 14.6845 12.6248C14.2235 11.968 13.6111 11.4321 12.8991 11.0622Z" fill="black"/>
</svg>
